<svg width="39" height="39" viewBox="0 0 39 39" fill="none" xmlns="http://www.w3.org/2000/svg">
<path d="M22.3994 21.1502V4.00024H12.9994C11.7327 4.00024 10.6827 4.22524 9.84941 4.67524C8.99941 5.12524 8.36608 5.75858 7.94942 6.57525C7.53275 7.37524 7.32442 8.30024 7.32442 9.35024C7.32442 10.4669 7.57442 11.4586 8.07442 12.3252C8.57442 13.1752 9.29941 13.8252 10.2494 14.2752L6.74941 21.1502H10.8744L13.8994 14.9002H18.6744V21.1502H22.3994ZM18.6744 11.9502H13.4994C12.7494 11.9502 12.1661 11.7252 11.7494 11.2752C11.3327 10.8086 11.1244 10.1836 11.1244 9.40024C11.1244 8.90024 11.2161 8.47525 11.3994 8.12524C11.5827 7.75858 11.8494 7.48358 12.1994 7.30024C12.5494 7.11691 12.9827 7.02525 13.4994 7.02525H18.6744V11.9502Z" fill="#301064"/>
<path fill-rule="evenodd" clip-rule="evenodd" d="M20.751 31.1498C22.9601 31.1498 24.751 29.3589 24.751 27.1498C24.751 24.9406 22.9601 23.1498 20.751 23.1498C18.5418 23.1498 16.751 24.9406 16.751 27.1498C16.751 29.3589 18.5418 31.1498 20.751 31.1498ZM20.751 34.8998C25.0312 34.8998 28.501 31.43 28.501 27.1498C28.501 22.8696 25.0312 19.3998 20.751 19.3998C16.4708 19.3998 13.001 22.8696 13.001 27.1498C13.001 31.43 16.4708 34.8998 20.751 34.8998Z" fill="#301064"/>
<circle cx="29.751" cy="6.50024" r="2.5" fill="#11BB8D"/>
</svg>
