<svg width="60" height="60" viewBox="0 0 60 60" fill="none" xmlns="http://www.w3.org/2000/svg">
<path d="M29.148 46.725L38.77 49.792C39.067 49.891 39.67 50 40 50C41.657 50 43 48.657 43 47C43 45.634 42.044 44.608 40.839 44.119C35 41.75 28.667 38 23 38C19.062 38 11 41.699 11 41.699" stroke="#301064" stroke-width="2" stroke-miterlimit="10"/>
<path d="M1 37H8C9.657 37 11 38.343 11 40V54C11 55.657 9.657 57 8 57H1" stroke="#301064" stroke-width="2" stroke-miterlimit="10"/>
<path d="M41.939 49.29C41.939 49.29 50.39 43.756 53.062 41.711C53.6 41.298 54.261 41 55 41C56.657 41 58 42.343 58 44C58 44.851 57.832 45.456 57.077 46.165C51.289 51.604 47.026 53.924 43.392 56.069C41.807 57.005 39.746 58 38 58C30.812 58 21.687 51 18 51C16.961 51 12.982 51.7 11 52.526" stroke="#301064" stroke-width="2" stroke-miterlimit="10"/>
<path d="M15 40.045V18.056C15 17.473 15.473 17 16.056 17H25.944C26.527 17 27 17.473 27 18.056V38.532" stroke="#301064" stroke-width="2" stroke-miterlimit="10"/>
<path d="M23 17V10.039C23 9.395 23.341 8.8 23.897 8.474C23.897 8.474 31.867 3.808 34.539 2.24C34.788 2.095 35.131 2 35.382 2C36.276 2 37 2.724 37 3.618V24" stroke="#301064" stroke-width="2" stroke-miterlimit="10"/>
<path d="M41 24V4.777C41 3.796 41.796 3 42.777 3C42.925 3 43.073 3.019 43.216 3.055L50.253 4.851C50.688 4.938 51 5.319 51 5.761V13" stroke="#301064" stroke-width="2" stroke-miterlimit="10"/>
<path d="M46 23.8421C46.2416 21.65 46.879 19.3192 47.6208 17.0224C48.2346 15.1202 49.266 14 50.9482 14C52.6305 14 53.6619 15.1202 54.2757 17.0224C55.2229 19.9563 56.5 22.8158 56.5 25.5C56.5 28.4652 54.2757 31.2805 50.9482 31C50.0928 31 48.2868 30.5043 47.5804 30.1053" fill="#B3E3BD"/>
<path d="M45.123 24C45.41 21.55 46.167 18.945 47.048 16.378C47.777 14.252 49.002 13 51 13C52.998 13 54.223 14.252 54.952 16.378C56.077 19.657 57 23 57 26C57 29.314 54.314 32 51 32C49.984 32 47.839 31.446 47 31" stroke="#301064" stroke-width="2" stroke-miterlimit="10"/>
<path d="M40.2109 24H45.8149C46.4699 24 46.9999 24.53 46.9999 25.185V45.93" stroke="#301064" stroke-width="2" stroke-miterlimit="10"/>
<path d="M40.5 24H34.8952C34.2401 24 33.71 24.5317 33.71 25.1888V41" stroke="#301064" stroke-width="2" stroke-miterlimit="10"/>
<path d="M12 20H10V22H12V20Z" fill="#301064"/>
<path d="M6 26H4V28H6V26Z" fill="#301064"/>
<path d="M12 32H10V34H12V32Z" fill="#301064"/>
<path d="M8 30H6V32H8V30Z" fill="#301064"/>
<path d="M8 22H6V24H8V22Z" fill="#301064"/>
<path d="M26 1H24V3H26V1Z" fill="#301064"/>
<path d="M12 15H10V17H12V15Z" fill="#301064"/>
<path d="M11 11H9V13H11V11Z" fill="#301064"/>
<path d="M14 3H12V5H14V3Z" fill="#301064"/>
<path d="M18 1H16V3H18V1Z" fill="#301064"/>
<path d="M12 7H10V9H12V7Z" fill="#301064"/>
<path d="M22 0H20V2H22V0Z" fill="#301064"/>
<path d="M59 50H57V52H59V50Z" fill="#301064"/>
<path d="M57 55H55V57H57V55Z" fill="#301064"/>
<path d="M52 57H50V59H52V57Z" fill="#301064"/>
<path d="M51 32V43" stroke="#301064" stroke-width="2" stroke-miterlimit="10"/>
</svg>
