<svg width="60" height="60" viewBox="0 0 60 60" fill="none" xmlns="http://www.w3.org/2000/svg">
<path d="M5 38V52.084C5 52.616 5.377 53.073 5.899 53.173L25.504 56.953C25.667 56.989 25.833 56.999 25.999 56.999C26.225 56.999 26.439 56.963 26.653 56.917L53.215 50.196C53.676 50.081 54 49.666 54 49.191V34.4" stroke="#301064" stroke-width="2" stroke-miterlimit="10"/>
<path d="M33.9965 14.926L15.6645 16.811C15.2425 16.854 14.8605 17.08 14.6185 17.428L1.51953 36.7" stroke="#301064" stroke-width="2" stroke-miterlimit="10"/>
<path d="M14.8242 17.191L28.0782 37.582C28.6532 38.466 29.6362 39 30.6912 39C30.8962 39 31.1012 38.98 31.3022 38.939L54.5932 34.281C55.4122 34.118 56.0002 33.4 56.0002 32.566C56.0002 32.198 55.8842 31.839 55.6682 31.541L43.3212 14.46C43.1232 14.17 42.7952 14 42.4492 14C42.4132 14 42.3772 14.002 42.3412 14.006L40.0002 14.314" stroke="#301064" stroke-width="2" stroke-miterlimit="10"/>
<path d="M26 41V57" stroke="#301064" stroke-width="2" stroke-miterlimit="10"/>
<path d="M10 53.964V40.883C10 39.843 10.843 39 11.883 39C11.961 39 12.039 39.005 12.117 39.015L17.823 39.728C19.067 39.883 20 40.941 20 42.194V55.892" stroke="#301064" stroke-width="2" stroke-miterlimit="10"/>
<path d="M48 39V46" stroke="#301064" stroke-width="2" stroke-miterlimit="10"/>
<path d="M41 41V48" stroke="#301064" stroke-width="2" stroke-miterlimit="10"/>
<path d="M33 43V50" stroke="#301064" stroke-width="2" stroke-miterlimit="10"/>
<path d="M56 12H54V14H56V12Z" fill="#301064"/>
<path d="M54 17H52V19H54V17Z" fill="#301064"/>
<path d="M49 5H47V7H49V5Z" fill="#301064"/>
<path d="M44 7H42V9H44V7Z" fill="#301064"/>
<path d="M54 7H52V9H54V7Z" fill="#301064"/>
<path d="M34 21V12.019C34 11.456 34.456 11 35.019 11H38.981C39.544 11 40 11.456 40 12.019V24" stroke="#301064" stroke-width="2" stroke-miterlimit="10"/>
<path d="M59 50H57V52H59V50Z" fill="#301064"/>
<path d="M57 55H55V57H57V55Z" fill="#301064"/>
<path d="M11 11H9V13H11V11Z" fill="#301064"/>
<path d="M4 18H2V20H4V18Z" fill="#301064"/>
<path d="M6 13H4V15H6V13Z" fill="#301064"/>
<path d="M6 23H4V25H6V23Z" fill="#301064"/>
<path d="M47 55H45V57H47V55Z" fill="#301064"/>
<path d="M39 32H37V34H39V32Z" fill="#301064"/>
<path d="M44 31H42V33H44V31Z" fill="#301064"/>
<path d="M49 30H47V32H49V30Z" fill="#301064"/>
<path d="M52 57H50V59H52V57Z" fill="#301064"/>
<path d="M27.5 1C22 1 19 7.5 10 6C12 12 21 12.5 24.5 12C28 11.5 34.5 7 36.5 6C35.5 3.5 33 1 27.5 1Z" fill="#B3E3BD"/>
<path d="M31.7057 8.379C30.5307 9.516 27.1247 12 20.9997 12C11.4697 12 9.38672 5.372 9.38672 5.372C9.38672 5.372 11.2567 6.001 13.4217 6C13.9407 6 14.4897 5.963 15.0017 5.861C20.8857 4.689 22.0157 1 27.1317 1C31.1217 1 35.1237 3.068 37.3647 7.701" stroke="#301064" stroke-width="2" stroke-miterlimit="10"/>
</svg>
