<svg width="12" height="12" viewBox="0 0 12 12" fill="none" xmlns="http://www.w3.org/2000/svg">
<path d="M6 0C2.6865 0 0 2.6865 0 6C0 9.3135 2.6865 12 6 12C9.3135 12 12 9.3135 12 6C12 2.6865 9.3135 0 6 0ZM6 5.25C7.44712 5.25 8.625 6.25912 8.625 7.5C8.625 8.51737 7.833 9.378 6.75 9.65513V9.75C6.75 10.164 6.414 10.5 6 10.5C5.586 10.5 5.25 10.164 5.25 9.75V9.65513C4.26263 9.39563 3.666 8.66287 3.44587 8.19337C3.39787 8.09025 3.375 7.98187 3.375 7.875C3.375 7.458 3.71438 7.125 4.125 7.125C4.407 7.125 4.677 7.28513 4.80413 7.55663C4.836 7.61925 5.178 8.25 6 8.25C6.59925 8.25 7.125 7.89937 7.125 7.5C7.125 7.10063 6.59925 6.75 6 6.75C4.55288 6.75 3.375 5.74088 3.375 4.5C3.375 3.48263 4.167 2.622 5.25 2.34487V2.25C5.25 1.836 5.586 1.5 6 1.5C6.414 1.5 6.75 1.836 6.75 2.25V2.34487C7.73737 2.60437 8.334 3.33713 8.55412 3.80663C8.60213 3.90975 8.625 4.01813 8.625 4.125C8.625 4.54125 8.28638 4.875 7.875 4.875C7.59375 4.875 7.32375 4.71525 7.19587 4.44337C7.164 4.38075 6.822 3.75 6 3.75C5.40075 3.75 4.875 4.10063 4.875 4.5C4.875 4.89937 5.40075 5.25 6 5.25Z" fill="#7A86A9"/>
</svg>
