<svg width="60" height="60" viewBox="0 0 60 60" fill="none" xmlns="http://www.w3.org/2000/svg">
<path d="M30 10C31.6569 10 33 8.65685 33 7C33 5.34315 31.6569 4 30 4C28.3431 4 27 5.34315 27 7C27 8.65685 28.3431 10 30 10Z" stroke="#301064" stroke-width="2" stroke-miterlimit="10"/>
<path d="M47.819 53.938C47.254 54.092 46.676 54.238 46.085 54.375" stroke="#301064" stroke-width="2" stroke-miterlimit="10"/>
<path d="M55.7291 50.6938C54.7291 51.2588 53.6641 52.0618 50.1411 53.2368" stroke="#301064" stroke-width="2" stroke-miterlimit="10"/>
<path d="M23.3149 55.437C25.0859 57.03 27.4299 58 29.9999 58C32.5659 58 34.9049 57.034 36.6759 55.446" stroke="#301064" stroke-width="2" stroke-miterlimit="10"/>
<path d="M23.2999 8.59685L19.5479 1.42285" stroke="#301064" stroke-width="2" stroke-miterlimit="10"/>
<path d="M14.6878 16.438L7.3418 13.647" stroke="#301064" stroke-width="2" stroke-miterlimit="10"/>
<path d="M15.3989 9.39893L17.6009 11.6009" stroke="#301064" stroke-width="2" stroke-miterlimit="10"/>
<path d="M12.3989 6.39893L13.6009 7.60093" stroke="#301064" stroke-width="2" stroke-miterlimit="10"/>
<path d="M36.7002 8.59685L40.4522 1.42285" stroke="#301064" stroke-width="2" stroke-miterlimit="10"/>
<path d="M45.313 16.438L52.658 13.647" stroke="#301064" stroke-width="2" stroke-miterlimit="10"/>
<path d="M44.6009 9.39893L42.3989 11.6009" stroke="#301064" stroke-width="2" stroke-miterlimit="10"/>
<path d="M47.6009 6.39893L46.3989 7.60093" stroke="#301064" stroke-width="2" stroke-miterlimit="10"/>
<path d="M29.9999 52C20.6179 52 12.0769 50.103 5.66895 47C11.7429 43.187 15.9999 34.326 15.9999 24C15.9999 16.268 22.2679 10 29.9999 10C37.7319 10 43.9999 16.268 43.9999 24C43.9999 34.326 48.2569 43.187 54.3309 47C47.9229 50.103 39.3819 52 29.9999 52V52Z" stroke="#301064" stroke-width="2" stroke-miterlimit="10"/>
<path d="M10.7349 32.8701C10.9049 32.2991 11.0589 31.7161 11.1959 31.1221" stroke="#301064" stroke-width="2" stroke-miterlimit="10"/>
<path d="M3.54199 43.613C6.21599 41.934 8.42599 38.94 9.91599 35.228" stroke="#301064" stroke-width="2" stroke-miterlimit="10"/>
</svg>
