<svg width="60" height="60" viewBox="0 0 60 60" fill="none" xmlns="http://www.w3.org/2000/svg">
<path d="M35.2598 42.259L50.2938 57.293C50.7468 57.746 51.3608 58 52.0008 58C52.6408 58 53.2548 57.746 53.7078 57.293L55.2938 55.707C55.7468 55.254 56.0008 54.64 56.0008 54C56.0008 53.36 55.7468 52.746 55.2938 52.293L40.2598 37.259" fill="#B3E3BD"/>
<path d="M35.2598 42.259L50.2938 57.293C50.7468 57.746 51.3608 58 52.0008 58C52.6408 58 53.2548 57.746 53.7078 57.293L55.2938 55.707C55.7468 55.254 56.0008 54.64 56.0008 54C56.0008 53.36 55.7468 52.746 55.2938 52.293L40.2598 37.259" stroke="#301064" stroke-width="2" stroke-miterlimit="10"/>
<path d="M26 45C35.3888 45 43 37.3888 43 28C43 18.6112 35.3888 11 26 11C16.6112 11 9 18.6112 9 28C9 37.3888 16.6112 45 26 45Z" stroke="#301064" stroke-width="2" stroke-miterlimit="10"/>
<path d="M33.7564 8.479C31.3564 7.525 28.7394 7 25.9994 7C24.3294 7 22.7054 7.195 21.1484 7.563" stroke="#301064" stroke-width="2" stroke-miterlimit="10"/>
<path d="M39.833 12.2C38.733 11.236 37.532 10.386 36.248 9.66602" stroke="#301064" stroke-width="2" stroke-miterlimit="10"/>
<path d="M5.11133 30.211C5.38533 32.804 6.14933 35.389 7.44433 37.833C8.21333 39.284 9.12833 40.608 10.1613 41.796" stroke="#301064" stroke-width="2" stroke-miterlimit="10"/>
<path d="M19.7961 3.776C16.2831 4.673 13.0681 6.314 10.3281 8.521" stroke="#301064" stroke-width="2" stroke-miterlimit="10"/>
<path d="M24.8187 3.02698C23.9107 3.06998 23.0157 3.15998 22.1367 3.29698" stroke="#301064" stroke-width="2" stroke-miterlimit="10"/>
<path d="M29.8645 3.29699C28.9605 3.15699 28.0395 3.06499 27.1055 3.02399" stroke="#301064" stroke-width="2" stroke-miterlimit="10"/>
<path d="M34.7801 4.586C33.9421 4.271 33.0821 4 32.2051 3.776" stroke="#301064" stroke-width="2" stroke-miterlimit="10"/>
<path d="M39.4686 6.93401C38.7686 6.48501 38.0106 6.03101 37.2656 5.65302" stroke="#301064" stroke-width="2" stroke-miterlimit="10"/>
<path d="M50.8384 30.852C50.9444 29.916 50.9994 28.964 50.9994 28C50.9994 23.385 49.7494 19.062 47.5684 15.352" stroke="#301064" stroke-width="2" stroke-miterlimit="10"/>
<path d="M50 35.022C50.18 34.405 50.337 33.778 50.47 33.142" stroke="#301064" stroke-width="2" stroke-miterlimit="10"/>
<path d="M34 51.693C34.68 51.463 35.348 51.205 36 50.92" stroke="#301064" stroke-width="2" stroke-miterlimit="10"/>
<path d="M30 52.682C30.676 52.573 31.343 52.437 32 52.276" stroke="#301064" stroke-width="2" stroke-miterlimit="10"/>
<path d="M13.1777 49.466C16.9267 51.71 21.3127 53 25.9997 53C26.6407 53 27.2767 52.976 27.9057 52.928" stroke="#301064" stroke-width="2" stroke-miterlimit="10"/>
<path d="M7.1543 44.427C8.1983 45.624 9.3543 46.72 10.6063 47.7" stroke="#301064" stroke-width="2" stroke-miterlimit="10"/>
<path d="M13.6973 23.7879C14.9653 20.0839 17.8943 17.0569 21.7123 15.7239" stroke="#301064" stroke-width="2" stroke-miterlimit="10"/>
<path d="M13 28C13 27.363 13.046 26.737 13.134 26.124" stroke="#301064" stroke-width="2" stroke-miterlimit="10"/>
<path d="M5.557 23.173C5.193 24.723 5 26.339 5 28" stroke="#301064" stroke-width="2" stroke-miterlimit="10"/>
</svg>
